<svg width="17" height="17" viewBox="0 0 17 17" fill="none" xmlns="http://www.w3.org/2000/svg">
<path d="M8.49899 1.56389C10.7599 1.56389 11.0276 1.57236 11.9208 1.61309C12.4578 1.61966 12.9897 1.71826 13.4933 1.90462C13.8586 2.04548 14.1903 2.26127 14.4671 2.53809C14.744 2.8149 14.9597 3.14662 15.1006 3.51188C15.287 4.01555 15.3856 4.54745 15.3921 5.08446C15.4325 5.9776 15.4413 6.24534 15.4413 8.50623C15.4413 10.7671 15.4329 11.0349 15.3921 11.928C15.3856 12.465 15.287 12.9969 15.1006 13.5006C14.9597 13.8658 14.744 14.1976 14.4671 14.4744C14.1903 14.7512 13.8586 14.967 13.4933 15.1078C12.9897 15.2942 12.4578 15.3928 11.9208 15.3994C11.028 15.4397 10.7603 15.4486 8.49899 15.4486C6.2377 15.4486 5.96996 15.4401 5.07722 15.3994C4.54021 15.3928 4.00831 15.2942 3.50464 15.1078C3.13938 14.967 2.80766 14.7512 2.53085 14.4744C2.25403 14.1976 2.03824 13.8658 1.89738 13.5006C1.71102 12.9969 1.61242 12.465 1.60585 11.928C1.56552 11.0349 1.55665 10.7671 1.55665 8.50623C1.55665 6.24534 1.56512 5.9776 1.60585 5.08446C1.61242 4.54745 1.71102 4.01555 1.89738 3.51188C2.03824 3.14662 2.25403 2.8149 2.53085 2.53809C2.80766 2.26127 3.13938 2.04548 3.50464 1.90462C4.00831 1.71826 4.54021 1.61966 5.07722 1.61309C5.97036 1.57276 6.2381 1.56389 8.49899 1.56389ZM8.49899 0.0380859C6.2006 0.0380859 5.91109 0.0477633 5.00786 0.0888924C4.30506 0.102871 3.60972 0.235941 2.95141 0.482441C2.38669 0.695209 1.8752 1.02864 1.45262 1.45946C1.02141 1.88219 0.687699 2.39397 0.474798 2.95905C0.228298 3.61736 0.095229 4.3127 0.08125 5.01551C0.0409274 5.91792 0.03125 6.20744 0.03125 8.50583C0.03125 10.8042 0.0409274 11.0937 0.0820564 11.997C0.0960354 12.6998 0.229105 13.3951 0.475605 14.0534C0.688269 14.6184 1.0217 15.1302 1.45262 15.553C1.87543 15.9839 2.38721 16.3174 2.95222 16.53C3.61052 16.7765 4.30587 16.9096 5.00867 16.9236C5.91189 16.9639 6.2002 16.9744 8.4998 16.9744C10.7994 16.9744 11.0877 16.9647 11.9909 16.9236C12.6937 16.9096 13.3891 16.7765 14.0474 16.53C14.6097 16.3121 15.1204 15.9791 15.5467 15.5525C15.973 15.1259 16.3056 14.6151 16.5232 14.0526C16.7697 13.3943 16.9028 12.699 16.9167 11.9962C16.9571 11.0937 16.9667 10.8042 16.9667 8.50583C16.9667 6.20744 16.9571 5.91793 16.9159 5.0147C16.9019 4.3119 16.7689 3.61655 16.5224 2.95825C16.3097 2.39324 15.9763 1.88146 15.5454 1.45865C15.1225 1.02773 14.6108 0.694299 14.0458 0.481634C13.3875 0.235134 12.6921 0.102065 11.9893 0.088086C11.0869 0.0477634 10.7974 0.0380859 8.49899 0.0380859Z" fill="white"/>
<path d="M8.49683 4.16211C7.6368 4.16211 6.79608 4.41714 6.08099 4.89494C5.3659 5.37275 4.80856 6.05188 4.47944 6.84644C4.15032 7.641 4.06421 8.51532 4.23199 9.35882C4.39978 10.2023 4.81392 10.9771 5.42205 11.5853C6.03019 12.1934 6.80499 12.6075 7.6485 12.7753C8.492 12.9431 9.36632 12.857 10.1609 12.5279C10.9554 12.1988 11.6346 11.6414 12.1124 10.9263C12.5902 10.2112 12.8452 9.37053 12.8452 8.5105C12.8452 7.35723 12.3871 6.2512 11.5716 5.43572C10.7561 4.62024 9.65009 4.16211 8.49683 4.16211ZM8.49683 11.3331C7.93857 11.3331 7.39286 11.1675 6.92868 10.8574C6.46451 10.5472 6.10274 10.1064 5.8891 9.59065C5.67547 9.07489 5.61957 8.50736 5.72848 7.95984C5.83739 7.41231 6.10622 6.90938 6.50096 6.51463C6.89571 6.11989 7.39864 5.85106 7.94617 5.74215C8.49369 5.63324 9.06122 5.68914 9.57698 5.90277C10.0927 6.11641 10.5336 6.47818 10.8437 6.94235C11.1539 7.40653 11.3194 7.95224 11.3194 8.5105C11.3194 9.25909 11.022 9.97703 10.4927 10.5064C9.96336 11.0357 9.24542 11.3331 8.49683 11.3331Z" fill="white"/>
<path d="M13.0318 5.00394C13.5929 5.00394 14.0479 4.549 14.0479 3.98781C14.0479 3.42662 13.5929 2.97168 13.0318 2.97168C12.4706 2.97168 12.0156 3.42662 12.0156 3.98781C12.0156 4.549 12.4706 5.00394 13.0318 5.00394Z" fill="white"/>
</svg>
