<svg width="17" height="16" viewBox="0 0 17 16" fill="none" xmlns="http://www.w3.org/2000/svg">
<path fill-rule="evenodd" clip-rule="evenodd" d="M8.27956 0.0380859C3.79088 0.0380859 0.179688 3.64928 0.179688 8.13795C0.179688 11.7154 2.5084 14.7528 5.7146 15.8328C6.11959 15.9003 6.25459 15.6641 6.25459 15.4278C6.25459 15.2253 6.25459 14.7191 6.25459 14.0441C3.99338 14.5504 3.52088 12.9641 3.52088 12.9641C3.14964 12.0191 2.60965 11.7829 2.60965 11.7829C1.86716 11.2767 2.67715 11.2767 2.67715 11.2767C3.48713 11.3442 3.92588 12.1204 3.92588 12.1204C4.63462 13.3691 5.81585 12.9979 6.28834 12.7954C6.35584 12.2554 6.55834 11.9179 6.79458 11.7154C5.00586 11.5129 3.11589 10.8042 3.11589 7.69921C3.11589 6.82173 3.41964 6.07924 3.95963 5.53925C3.89213 5.33675 3.58838 4.52676 4.02713 3.37928C4.02713 3.37928 4.70212 3.17678 6.25459 4.22302C6.89583 4.05427 7.60457 3.95302 8.27956 3.95302C8.95455 3.95302 9.66329 4.05427 10.3045 4.22302C11.857 3.17678 12.532 3.37928 12.532 3.37928C12.9707 4.49301 12.7007 5.303 12.5995 5.53925C13.1057 6.11299 13.4432 6.82173 13.4432 7.69921C13.4432 10.8042 11.5533 11.4791 9.73078 11.6816C10.0345 11.9179 10.2708 12.4241 10.2708 13.1666C10.2708 14.2466 10.2708 15.1241 10.2708 15.3941C10.2708 15.5966 10.4058 15.8666 10.8445 15.7991C14.0507 14.7528 16.3794 11.7154 16.3794 8.13795C16.3794 3.64928 12.7682 0.0380859 8.27956 0.0380859Z" fill="white"/>
</svg>
