<svg width="15" height="12" viewBox="0 0 15 12" fill="none" xmlns="http://www.w3.org/2000/svg">
<path d="M14.2487 1.73327C13.7249 1.96606 13.172 2.11156 12.59 2.19885C13.172 1.84967 13.6376 1.29679 13.8413 0.62752C13.2884 0.947606 12.6773 1.1804 12.0081 1.32589C11.4843 0.773013 10.7277 0.423828 9.91294 0.423828C8.34161 0.423828 7.06126 1.70417 7.06126 3.27551C7.06126 3.5083 7.09036 3.71199 7.14856 3.91568C4.79156 3.79928 2.66735 2.66443 1.24151 0.918507C1.00872 1.35499 0.863225 1.82057 0.863225 2.34435C0.863225 3.3337 1.3579 4.20667 2.14357 4.73044C1.67799 4.70135 1.24151 4.58495 0.834127 4.38126V4.41036C0.834127 5.8071 1.82348 6.97105 3.13293 7.23294C2.90014 7.29114 2.63825 7.32023 2.37636 7.32023C2.20177 7.32023 1.99808 7.29114 1.82348 7.26204C2.20177 8.39689 3.24932 9.24075 4.50057 9.24075C3.51121 9.99732 2.28906 10.4629 0.950522 10.4629C0.717731 10.4629 0.484941 10.4629 0.28125 10.4338C1.5616 11.2486 3.04563 11.7141 4.67516 11.7141C9.94204 11.7141 12.8228 7.34933 12.8228 3.56649C12.8228 3.4501 12.8228 3.30461 12.8228 3.18821C13.3757 2.80993 13.8704 2.31525 14.2487 1.73327Z" fill="white"/>
</svg>
